<svg width="48" height="31" viewBox="0 0 48 31" fill="none" xmlns="http://www.w3.org/2000/svg">
<path d="M9.77543 12.8274C10.7553 12.8274 11.4778 13.3711 11.854 14.3034H11.9332C12.5171 13.3121 13.2297 12.8274 14.1305 12.8274C15.6151 12.8274 16.5158 14.0673 16.5158 16.0648V20.9306C16.5158 21.0782 16.4069 21.1864 16.2585 21.1864H14.6748C14.5264 21.1864 14.4175 21.0782 14.4175 20.9306V16.2222C14.4175 15.2677 14.0414 14.7364 13.3386 14.7364C12.5666 14.7364 12.1608 15.3563 12.1608 16.4977V20.9306C12.1608 21.0782 12.0519 21.1864 11.9035 21.1864H10.3198C10.1714 21.1864 10.0625 21.0782 10.0625 20.9306V16.2222C10.0625 15.2677 9.68636 14.7364 8.98361 14.7364C8.21158 14.7364 7.80579 15.3563 7.80579 16.4977V20.9306C7.80579 21.0782 7.69689 21.1864 7.54842 21.1864H5.96478C5.81631 21.1864 5.70745 21.0782 5.70745 20.9306V13.2604C5.70745 13.1128 5.81631 13.0045 5.96478 13.0045H7.2713C7.41976 13.0045 7.51626 13.103 7.54842 13.2604L7.74639 14.2247H7.82555C8.18188 13.3293 8.86484 12.8274 9.77543 12.8274Z" fill="white"/>
<path d="M24.2052 13.2604V20.9306C24.2052 21.0782 24.0963 21.1864 23.9478 21.1864H22.6413C22.483 21.1864 22.3988 21.088 22.3642 20.9306L22.1662 19.9663H22.0871C21.7307 20.8814 21.0379 21.3635 20.1075 21.3635C18.6228 21.3635 17.7122 20.1532 17.7122 18.1754V13.2604C17.7122 13.1128 17.8211 13.0045 17.9696 13.0045H19.5532C19.7017 13.0045 19.8106 13.1128 19.8106 13.2604V18.018C19.8106 18.9527 20.1867 19.4644 20.8993 19.4644C21.6911 19.4644 22.1068 18.874 22.1068 17.7424V13.2604C22.1068 13.1128 22.2157 13.0045 22.3642 13.0045H23.9478C24.0963 13.0045 24.2052 13.1128 24.2052 13.2604Z" fill="white"/>
<path d="M29.3711 15.3218C29.2721 14.7807 28.8564 14.4658 28.2922 14.4658C27.728 14.4658 27.3519 14.761 27.3519 15.1939C27.3519 15.5973 27.6488 15.8581 28.2625 16.0106L29.4205 16.296C30.8557 16.6502 31.4694 17.4669 31.4694 18.6871C31.4694 20.2319 30.1431 21.3635 28.3714 21.3635C26.758 21.3635 25.412 20.5271 25.1744 18.7461C25.1546 18.5887 25.2338 18.4804 25.3922 18.4509L26.758 18.1951C26.9362 18.1606 27.0352 18.2344 27.0748 18.4509C27.2133 19.3119 27.6884 19.7251 28.3714 19.7251C28.9949 19.7251 29.4304 19.4005 29.4304 18.874C29.4304 18.3624 29.1236 18.0844 28.4802 17.9294L27.6192 17.7228C25.8771 17.3046 25.313 16.4633 25.313 15.3218C25.313 13.7229 26.6393 12.8274 28.2922 12.8274C30.0045 12.8274 30.9943 13.7032 31.2912 14.9676C31.3308 15.1447 31.2714 15.2529 31.0933 15.2825L29.668 15.5186C29.5096 15.5457 29.3908 15.4793 29.3711 15.3218Z" fill="white"/>
<path d="M33.4878 9.91975C34.1609 9.91975 34.7151 10.3724 34.7151 11.1399C34.7151 11.8877 34.1609 12.3601 33.4878 12.3601C32.8148 12.3601 32.2605 11.8877 32.2605 11.1399C32.2605 10.3724 32.8148 9.91975 33.4878 9.91975ZM32.4387 20.9306V13.2604C32.4387 13.1128 32.5475 13.0045 32.696 13.0045H34.2796C34.4281 13.0045 34.537 13.1128 34.537 13.2604V20.9306C34.537 21.0782 34.4281 21.1864 34.2796 21.1864H32.696C32.5475 21.1864 32.4387 21.0782 32.4387 20.9306Z" fill="white"/>
<path d="M42.2864 18.6182C41.9301 20.3894 40.6236 21.3635 39.0993 21.3635C37.0604 21.3635 35.5361 19.5234 35.5361 17.093C35.5361 14.6675 37.0604 12.8274 39.0993 12.8274C40.6236 12.8274 41.9301 13.8016 42.2864 15.5728C42.3161 15.74 42.2369 15.8483 42.0786 15.8778L40.6434 16.1336C40.485 16.1631 40.386 16.0942 40.3465 15.927C40.1287 14.9332 39.6932 14.4904 39.0993 14.4904C38.1887 14.4904 37.7136 15.4153 37.7136 17.093C37.7136 18.7756 38.1887 19.7006 39.0993 19.7006C39.6932 19.7006 40.1287 19.2578 40.3465 18.2639C40.386 18.0967 40.485 18.0278 40.6434 18.0573L42.0786 18.3131C42.2369 18.3427 42.3161 18.4509 42.2864 18.6182Z" fill="white"/>
<path d="M32.4819 25.2989C32.5811 25.5249 32.8678 25.525 33.3132 25.4365C34.5007 25.1809 36.0048 25.1613 36.2621 25.5151C36.5095 25.8789 35.9652 27.2747 35.322 28.2968C35.0845 28.69 34.9855 28.9358 35.1835 29.1226C35.2329 29.1816 35.3022 29.2012 35.3814 29.211C35.6189 29.211 35.9257 28.9751 36.2127 28.7097C36.836 28.1691 37.321 27.481 37.5882 26.7045C37.8553 25.9574 37.984 24.9057 37.7069 24.5027C37.4397 24.1193 36.4007 23.8638 35.599 23.8736C34.7579 23.8736 33.9465 24.0801 33.2142 24.4634C32.759 24.7091 32.3437 24.9842 32.4819 25.2989Z" fill="white"/>
<path d="M10.5231 24.886C10.5912 25.0928 10.7506 25.348 10.9881 25.6429C14.0261 29.3683 18.9147 31 23.635 31C27.7616 31 31.7496 29.7615 34.2829 27.5793C34.7184 27.196 34.9459 26.8913 34.9459 26.6554C34.9459 26.5571 34.9064 26.4784 34.837 26.3998C34.6194 26.1737 34.2928 26.3408 33.897 26.5473C31.5418 27.776 27.9199 28.6213 24.0704 28.6213C19.7262 28.6213 15.0751 27.5499 11.5522 24.7288C11.2158 24.4634 10.8496 24.198 10.6022 24.3946C10.5131 24.4634 10.4325 24.6113 10.5231 24.886Z" fill="white"/>
<path d="M2.36557 8.53607C0.950187 8.53607 0 7.54225 0 6.07611C0 4.30986 1.39558 3.17827 3.61269 3.17827C3.92941 3.17827 4.20654 3.19551 4.43421 3.2447V3.04052C4.43421 2.03686 4.06305 1.55471 3.31082 1.55471C2.71693 1.55471 2.32597 1.88189 2.14781 2.50917C2.09834 2.68875 1.99934 2.77486 1.83108 2.74533L0.455294 2.50917C0.28703 2.47965 0.197964 2.34189 0.24743 2.15495C0.613659 0.769989 1.76181 0 3.45432 0C5.46359 0 6.53255 1.10206 6.53255 3.15614V8.10312C6.53255 8.25072 6.42365 8.35896 6.27518 8.35896H4.9687C4.81527 8.35896 4.7262 8.26056 4.69154 8.10312L4.49361 7.17817H4.41441C4.05808 8.03178 3.34546 8.53607 2.36557 8.53607ZM3.16729 6.98138C3.98881 6.98138 4.43421 6.23354 4.43421 4.86582V4.34676C4.26594 4.31725 4.08778 4.29757 3.90962 4.29757C2.83076 4.29757 2.15771 4.89534 2.15771 5.83997C2.15771 6.53858 2.55363 6.98138 3.16729 6.98138Z" fill="white"/>
<path d="M11.8666 0C12.8465 0 13.5691 0.543658 13.9452 1.47599H14.0243C14.6083 0.484623 15.321 0 16.2217 0C17.7063 0 18.6071 1.23983 18.6071 3.23733V8.10312C18.6071 8.25072 18.4982 8.35896 18.3497 8.35896H16.766C16.6176 8.35896 16.5087 8.25072 16.5087 8.10312V3.39476C16.5087 2.4403 16.1326 1.90893 15.4299 1.90893C14.6578 1.90893 14.252 2.52884 14.252 3.67027V8.10312C14.252 8.25072 14.1431 8.35896 13.9947 8.35896H12.411C12.2626 8.35896 12.1537 8.25072 12.1537 8.10312V3.39476C12.1537 2.4403 11.7776 1.90893 11.0748 1.90893C10.3028 1.90893 9.897 2.52884 9.897 3.67027V8.10312C9.897 8.25072 9.7881 8.35896 9.63964 8.35896H8.05599C7.90753 8.35896 7.79866 8.25072 7.79866 8.10312V0.432961C7.79866 0.285366 7.90753 0.177121 8.05599 0.177121H9.36251C9.51097 0.177121 9.60747 0.275524 9.63964 0.432961L9.8376 1.39727H9.91677C10.2731 0.501838 10.9561 0 11.8666 0Z" fill="white"/>
<path d="M21.882 8.53607C20.4666 8.53607 19.5164 7.54225 19.5164 6.07611C19.5164 4.30986 20.912 3.17827 23.1291 3.17827C23.4458 3.17827 23.723 3.19551 23.9506 3.2447V3.04052C23.9506 2.03686 23.5795 1.55471 22.8272 1.55471C22.2333 1.55471 21.8424 1.88189 21.6642 2.50917C21.6147 2.68875 21.5157 2.77486 21.3475 2.74533L19.9717 2.50917C19.8034 2.47965 19.7144 2.34189 19.7638 2.15495C20.1301 0.769989 21.2782 0 22.9707 0C24.98 0 26.049 1.10206 26.049 3.15614V8.10312C26.049 8.25072 25.9401 8.35896 25.7916 8.35896H24.4851C24.3317 8.35896 24.2426 8.26056 24.2079 8.10312L24.01 7.17817H23.9308C23.5745 8.03178 22.8619 8.53607 21.882 8.53607ZM22.6837 6.98138C23.5052 6.98138 23.9506 6.23354 23.9506 4.86582V4.34676C23.7824 4.31725 23.6042 4.29757 23.426 4.29757C22.3472 4.29757 21.6741 4.89534 21.6741 5.83997C21.6741 6.53858 22.07 6.98138 22.6837 6.98138Z" fill="white"/>
<path d="M26.929 6.92234C26.929 6.78459 26.9686 6.6665 27.0478 6.54842L30.2695 1.83023H27.2655C27.1171 1.83023 27.0082 1.72199 27.0082 1.57437V0.432961C27.0082 0.285366 27.1171 0.177121 27.2655 0.177121H32.4718C32.6202 0.177121 32.7291 0.285366 32.7291 0.432961V1.61374C32.7291 1.7515 32.6994 1.85974 32.6103 1.98767L29.3564 6.70585H32.6301C32.7885 6.70585 32.8875 6.8141 32.8875 6.9617V8.10312C32.8875 8.25072 32.7786 8.35896 32.6301 8.35896H27.1864C27.0379 8.35896 26.929 8.25072 26.929 8.10312V6.92234Z" fill="white"/>
<path d="M33.283 4.26804C33.283 1.82776 34.8171 0 36.8461 0C38.8851 0 40.4292 1.82776 40.4292 4.26804C40.4292 6.70585 38.8851 8.53362 36.8461 8.53362C34.8171 8.53362 33.283 6.70585 33.283 4.26804ZM36.8461 6.86329C37.7469 6.86329 38.2516 5.93835 38.2516 4.26804C38.2516 2.59527 37.7469 1.67032 36.8461 1.67032C35.9554 1.67032 35.4605 2.59527 35.4605 4.26804C35.4605 5.93835 35.9554 6.86329 36.8461 6.86329Z" fill="white"/>
<path d="M45.5553 0C47.0696 0 48 1.23983 48 3.23733V8.10312C48 8.25072 47.8911 8.35896 47.7427 8.35896H46.159C46.0106 8.35896 45.9017 8.25072 45.9017 8.10312V3.39476C45.9017 2.4403 45.4959 1.90893 44.7634 1.90893C43.9617 1.90893 43.5262 2.52884 43.5262 3.67027V8.10312C43.5262 8.25072 43.4173 8.35896 43.2689 8.35896H41.6852C41.5368 8.35896 41.4279 8.25072 41.4279 8.10312V0.432961C41.4279 0.285366 41.5368 0.177121 41.6852 0.177121H42.9917C43.1402 0.177121 43.2367 0.275524 43.2689 0.432961L43.4668 1.39727H43.546C43.9023 0.504307 44.615 0 45.5553 0Z" fill="white"/>
</svg>
