<svg width="48" height="49" viewBox="0 0 48 49" fill="none" xmlns="http://www.w3.org/2000/svg">
<path fill-rule="evenodd" clip-rule="evenodd" d="M47.9973 13.795C48 14.3683 48 14.9417 48 15.515H47.9987V33.4848C47.9987 33.5995 47.9987 33.7142 47.9988 33.829C47.999 34.2876 47.9992 34.7462 47.996 35.2048C47.9933 35.6875 47.988 36.1702 47.9747 36.6528C47.9467 37.7035 47.884 38.7649 47.6973 39.8049C47.508 40.8609 47.1973 41.8436 46.7093 42.8037C46.2293 43.7463 45.6027 44.6077 44.8547 45.3557C44.1067 46.1037 43.244 46.7304 42.3013 47.2104C41.3427 47.6984 40.3613 48.0091 39.3053 48.1985C38.2653 48.3851 37.204 48.4478 36.152 48.4758C35.6693 48.4891 35.1867 48.4945 34.704 48.4971C34.1307 48.4998 33.5573 48.4998 32.984 48.4998H15.0147C14.8999 48.4998 14.7852 48.4998 14.6705 48.4999C14.2119 48.5001 13.7533 48.5003 13.2947 48.4971C12.812 48.4945 12.3293 48.4891 11.8467 48.4758C10.7947 48.4478 9.73333 48.3851 8.69333 48.1985C7.63867 48.0078 6.656 47.6984 5.69733 47.2104C4.75467 46.7304 3.892 46.1037 3.144 45.3557C2.396 44.6077 1.76933 43.7463 1.28933 42.8037C0.801333 41.8436 0.490667 40.8609 0.301333 39.8049C0.114667 38.7649 0.052 37.7049 0.024 36.6528C0.0106667 36.1702 0.00533333 35.6875 0.00266667 35.2048C0 34.6315 0 34.0581 0 33.4848V15.515C0 14.9417 0 14.3683 0.00266667 13.7963C0.00533333 13.3136 0.0106667 12.831 0.024 12.3483C0.052 11.2976 0.114667 10.2362 0.301333 9.1962C0.490667 8.14018 0.801333 7.15749 1.28933 6.19747C1.76933 5.25478 2.396 4.39342 3.144 3.64541C3.892 2.89739 4.75467 2.27071 5.69733 1.7907C6.656 1.30269 7.63733 0.992012 8.69333 0.802674C9.73333 0.614669 10.7947 0.553335 11.8467 0.524001C12.3293 0.510667 12.812 0.505333 13.2947 0.502667C13.868 0.5 14.4413 0.5 15.0147 0.5H32.9853C33.5587 0.5 34.132 0.5 34.7053 0.502667C35.188 0.505333 35.6707 0.510667 36.1533 0.524001C37.2053 0.552001 38.2667 0.614669 39.3067 0.80134C40.3613 0.992012 41.344 1.30135 42.3027 1.78936C43.2453 2.26937 44.108 2.89606 44.856 3.64407C45.604 4.39209 46.2307 5.25344 46.7107 6.19613C47.1987 7.15616 47.5093 8.13885 47.6987 9.19487C47.8853 10.2349 47.948 11.2949 47.976 12.3469C47.9893 12.8296 47.9947 13.3123 47.9973 13.795ZM32.6627 8.05218C32.7867 8.02685 33.8173 7.84418 33.9333 7.83351C34.7053 7.76684 35.1387 8.27352 35.136 9.09487V31.7367C35.136 32.3448 35.1307 32.8954 35.0027 33.5048C34.8787 34.0955 34.6533 34.6515 34.304 35.1515C33.956 35.6502 33.5107 36.0595 32.9907 36.3662C32.4653 36.6769 31.9133 36.8542 31.324 36.9729C30.2173 37.1955 29.46 37.2462 28.7493 37.1035C28.064 36.9649 27.4827 36.6502 27.0173 36.2235C26.328 35.5928 25.8987 34.7395 25.8053 33.8475C25.696 32.8021 26.0427 31.6861 26.828 30.8634C27.224 30.4474 27.7213 30.1194 28.3853 29.862C29.08 29.5927 29.8467 29.4313 31.0253 29.194L31.9573 29.006C32.3667 28.9233 32.716 28.8193 32.9987 28.474C33.284 28.1273 33.288 27.7033 33.288 27.2846V16.7124C33.288 15.903 32.924 15.683 32.152 15.831C31.5987 15.939 19.74 18.3311 19.74 18.3311C19.0707 18.4938 18.836 18.7124 18.836 19.5418V35.0288C18.836 35.6368 18.8053 36.1875 18.6773 36.7969C18.5533 37.3875 18.328 37.9436 17.9787 38.4436C17.6307 38.9422 17.1853 39.3516 16.6653 39.6583C16.14 39.9689 15.588 40.1543 14.9987 40.2729C13.892 40.4969 13.1347 40.5463 12.424 40.4036C11.7387 40.2663 11.1573 39.9423 10.692 39.5156C10.0027 38.8849 9.60133 38.0316 9.50799 37.1395C9.39866 36.0942 9.71733 34.9781 10.5027 34.1555C10.8987 33.7395 11.396 33.4114 12.06 33.1541C12.7547 32.8848 13.5213 32.7234 14.7 32.4861L15.632 32.2981C16.0413 32.2154 16.3907 32.1114 16.6733 31.7661C16.956 31.4207 16.9893 31.0154 16.9893 30.598V12.7416C16.9893 12.5016 17.0093 12.339 17.0213 12.2589C17.0787 11.8829 17.2293 11.5603 17.5013 11.3323C17.7267 11.1429 18.0187 11.0109 18.3907 10.9323L18.396 10.9309L32.6627 8.05218Z" fill="white"/>
</svg>
