<svg width="24" height="20" viewBox="0 0 24 20" fill="none" xmlns="http://www.w3.org/2000/svg">
<path fill-rule="evenodd" clip-rule="evenodd" d="M3.13855 2.25397C2.4157 2.25397 1.84626 2.83131 1.84626 3.52319V4.10938L11.3476 10.0841C11.5426 10.2045 11.7686 10.2687 12 10.2687C12.2314 10.2687 12.4574 10.2045 12.6524 10.0841L12.6545 10.0828L22.1537 4.10938V3.52319C22.1537 2.83131 21.5843 2.25397 20.8614 2.25397H3.13855ZM23.9999 4.6035V3.52319C23.9999 1.79354 22.5856 0.407837 20.8614 0.407837H3.13855C1.41438 0.407837 0.000121111 1.79354 0.000121111 3.52319V4.6035C-4.05353e-05 4.61348 -4.02052e-05 4.62345 0.000121111 4.63342V16.6769C0.000121111 18.4066 1.41438 19.7923 3.13855 19.7923H20.8614C22.5856 19.7923 23.9999 18.4066 23.9999 16.6769V4.63342C24 4.62345 24 4.61348 23.9999 4.6035ZM22.1537 6.29019L13.6273 11.6519C13.1388 11.9547 12.5749 12.1149 12 12.1149C11.4251 12.1149 10.8612 11.9547 10.3727 11.6519L10.3677 11.6488L1.84626 6.29019V16.6769C1.84626 17.3688 2.4157 17.9461 3.13855 17.9461H20.8614C21.5843 17.9461 22.1537 17.3688 22.1537 16.6769V6.29019Z" fill="white"/>
</svg>
