<svg width="48" height="49" viewBox="0 0 48 49" fill="none" xmlns="http://www.w3.org/2000/svg">
<path d="M0 24.5C0 11.2454 10.7454 0.5 24 0.5C37.2546 0.5 48 11.2454 48 24.5C48 37.7546 37.2546 48.5 24 48.5C10.7454 48.5 0 37.7546 0 24.5ZM35.7775 19.3073C36.1651 18.8939 36.3767 18.346 36.3674 17.7794C36.3582 17.2128 36.129 16.6721 35.7282 16.2715C35.3273 15.871 34.7864 15.6421 34.2198 15.6333C33.6532 15.6245 33.1055 15.8365 32.6924 16.2244L19.5774 29.3371L15.4451 25.2069C15.0336 24.8095 14.4825 24.5896 13.9104 24.5945C13.3383 24.5995 12.7911 24.829 12.3866 25.2335C11.982 25.638 11.7526 26.1853 11.7476 26.7573C11.7426 27.3294 11.9626 27.8805 12.36 28.292L19.5774 35.5095L35.7775 19.3094V19.3073Z" fill="white"/>
</svg>
