<svg width="48" height="55" viewBox="0 0 48 55" fill="none" xmlns="http://www.w3.org/2000/svg">
<path d="M23.052 0.5L0 13.622V41.378L23.052 54.5V23.0225L12.8868 29.003V37.247C12.9095 37.4968 12.9095 37.7533 12.8868 38.003C12.6532 38.9818 11.6621 39.812 10.6188 40.5028C8.79985 41.711 6.64525 41.648 5.70629 40.253C4.76961 38.858 5.38651 36.5833 7.21678 35.375C8.0877 34.745 9.17407 34.4773 10.2423 34.628V15.3928C10.2423 15.0463 10.5462 14.8258 10.7549 14.6998L23.052 7.25V0.5ZM24.948 0.5V14.3645C26.2499 14.432 27.5335 14.7245 28.7311 15.2352C29.4359 15.2415 30.1343 15.1012 30.7812 14.8233C31.4281 14.5455 32.0091 14.1362 32.4869 13.622C32.2905 13.3438 32.1589 13.0258 32.1014 12.691C32.0439 12.3562 32.0621 12.013 32.1545 11.686C32.247 11.359 32.4114 11.0564 32.636 10.8001C32.8606 10.5438 33.1397 10.3401 33.4532 10.2038C33.7668 10.0675 34.1069 10.0019 34.4491 10.0117C34.7913 10.0216 35.127 10.1066 35.432 10.2608C35.737 10.415 36.0038 10.6344 36.213 10.9032C36.4222 11.172 36.5687 11.4835 36.6418 11.8153L36.6509 11.8288C36.7376 12.2205 36.7194 12.628 36.5982 13.0107C36.4771 13.3934 36.2571 13.7379 35.9602 14.0102C35.6633 14.2825 35.2998 14.4729 34.9057 14.5627C34.5116 14.6525 34.1008 14.6385 33.7139 14.522C32.9427 15.4288 31.9176 16.0925 30.7723 16.4345C31.5434 17.0263 32.226 17.7305 32.793 18.5225C33.3949 18.3836 34.0277 18.4846 34.5553 18.8038C36.2971 19.8973 35.8435 22.532 33.8341 22.982C31.8246 23.432 30.2642 21.2495 31.3619 19.5193C31.4073 19.4518 31.4572 19.3843 31.5094 19.3168C30.6728 18.1756 29.55 17.2712 28.2525 16.6933C27.2113 16.2189 26.0913 15.9375 24.948 15.863V24.8855C26.8872 25.0205 27.7966 25.9948 28.4748 26.762C28.9896 27.338 29.2822 27.6395 29.7857 27.6665C30.5182 27.707 31.0739 27.6845 31.6137 27.6665C32.2905 27.6276 32.9694 27.6442 33.6435 27.716C35.7755 27.6777 36.5284 27.2075 37.2837 26.7125C38.0402 26.1628 38.9209 25.8051 39.8488 25.6708C39.9109 25.4618 40.0026 25.2625 40.121 25.079C40.1916 24.9699 40.2712 24.8668 40.3591 24.7708C40.4113 24.7145 40.4657 24.6718 40.5179 24.6223C40.0525 22.848 40.0525 20.9852 40.5179 19.211L40.4906 19.1885C40.0953 18.8249 39.8404 18.3357 39.7699 17.8055C39.6995 17.2752 39.8179 16.7372 40.1047 16.2844C40.3916 15.8316 40.8288 15.4923 41.341 15.3253C41.8531 15.1583 42.408 15.1739 42.9097 15.3696C43.4114 15.5652 43.8286 15.9286 44.089 16.3969C44.3494 16.8652 44.4368 17.409 44.336 17.9344C44.2353 18.4598 43.9528 18.9338 43.5372 19.2745C43.1217 19.6152 42.5992 19.8013 42.0601 19.8005H41.9308C41.6164 21.191 41.6164 22.6333 41.9308 24.0238H42.0737C42.4322 24.0242 42.7857 24.1073 43.1063 24.2665C43.4268 24.4257 43.7057 24.6566 43.9209 24.941C44.1361 25.2254 44.2818 25.5556 44.3463 25.9054C44.4109 26.2553 44.3926 26.6152 44.293 26.9568C44.1933 27.2984 44.015 27.6124 43.772 27.8739C43.5291 28.1355 43.2282 28.3374 42.8932 28.4639C42.5581 28.5903 42.198 28.6377 41.8413 28.6024C41.4845 28.5671 41.141 28.4501 40.8376 28.2605L40.7311 28.1863C40.3741 27.9378 40.0969 27.5925 39.9327 27.1918C39.2622 27.3077 38.6293 27.5807 38.0866 27.9883C37.5936 28.33 37.0576 28.6061 36.4922 28.8095C38.209 30.0583 40.5111 32.4095 41.4795 33.9823C41.6691 33.9334 41.8642 33.9085 42.0601 33.908C42.4196 33.9068 42.7744 33.9887 43.0964 34.1473C43.4184 34.3058 43.6987 34.5366 43.9151 34.8214C44.1315 35.1062 44.2781 35.437 44.3431 35.7878C44.4081 36.1385 44.3899 36.4995 44.2898 36.842C44.1897 37.1845 44.0105 37.4992 43.7665 37.761C43.5224 38.0229 43.2202 38.2247 42.8839 38.3505C42.5475 38.4763 42.1862 38.5226 41.8287 38.4857C41.4711 38.4488 41.1271 38.3298 40.824 38.138L40.7174 38.0705C40.2344 37.731 39.9014 37.2202 39.7874 36.6439C39.6734 36.0676 39.7872 35.4699 40.1051 34.9745C40.1403 34.9182 40.1789 34.8641 40.2208 34.8125C39.2115 33.0688 35.6258 29.6825 34.6415 29.4418C33.6723 29.1935 32.6686 29.1045 31.6704 29.1785C31.1261 29.1965 30.5069 29.219 29.7063 29.1785C28.5383 29.1178 27.9304 28.4293 27.3408 27.7633C26.7511 27.0972 26.1841 26.5033 24.948 26.3885V42.125C25.2811 42.0623 25.6055 41.9603 25.9142 41.8213C25.956 41.7969 26 41.7765 26.0457 41.7605C27.3158 41.1597 29.2686 39.713 30.7995 36.2547C30.337 35.9162 30.0181 35.419 29.9049 34.86C29.7917 34.301 29.8923 33.7202 30.1871 33.2308C30.3919 32.8885 30.683 32.6049 31.0317 32.408C31.3804 32.211 31.7747 32.1074 32.1759 32.1073C32.5772 32.1073 32.9715 32.2107 33.3203 32.4076C33.669 32.6044 33.9602 32.8879 34.1651 33.2301C34.3701 33.5723 34.4818 33.9615 34.4893 34.3595C34.4968 34.7575 34.3998 35.1505 34.2079 35.5001C34.016 35.8497 33.7357 36.1437 33.3946 36.3533C33.0535 36.5629 32.6633 36.681 32.2623 36.6958C31.5259 38.5031 30.4201 40.1394 29.0146 41.5018C29.5805 41.6177 30.1149 41.8524 30.5817 42.1903C30.815 42.3998 31.1084 42.5319 31.4209 42.5683C32.1123 42.4951 32.7901 42.327 33.4349 42.0688C33.3731 41.5791 33.472 41.0827 33.717 40.6533C33.962 40.2238 34.34 39.8841 34.795 39.6846C35.2499 39.485 35.7576 39.4363 36.2426 39.5456C36.7277 39.6549 37.1644 39.9164 37.4878 40.2913V40.28C37.775 40.6131 37.96 41.0208 38.021 41.4549C38.082 41.889 38.0164 42.3313 37.832 42.7296C37.6476 43.1279 37.3521 43.4655 36.9804 43.7025C36.6088 43.9394 36.1765 44.0658 35.7346 44.0668C35.1268 44.072 34.5411 43.8401 34.104 43.421C33.2595 43.7696 32.3661 43.9874 31.4549 44.0668H31.3415C30.7549 44.0228 30.1946 43.8075 29.7312 43.448C29.137 43.0498 28.5746 42.6718 26.5515 43.178C26.0479 43.4204 25.505 43.5727 24.948 43.628V54.5L48 41.378V13.622L24.948 0.5ZM34.3693 11.534C34.2013 11.5372 34.0386 11.5929 33.9043 11.6932C33.7701 11.7934 33.6711 11.9332 33.6216 12.0925C33.5721 12.2518 33.5745 12.4226 33.6286 12.5805C33.6826 12.7383 33.7855 12.8753 33.9225 12.9718L33.9633 12.9943C34.333 13.2193 34.8206 13.1135 35.061 12.7513V12.7467C35.1373 12.6261 35.1794 12.4873 35.1828 12.345C35.1863 12.2026 35.151 12.062 35.0806 11.9378C35.0103 11.8137 34.9075 11.7107 34.7831 11.6396C34.6588 11.5685 34.5174 11.5321 34.3738 11.534H34.3693ZM23.052 15.872L12.846 21.875V26.375L23.052 20.372V15.872ZM42.0692 16.727C41.9352 16.7282 41.8037 16.7629 41.6868 16.8277C41.5699 16.8926 41.4713 16.9856 41.4001 17.0983V17.1028C41.2918 17.274 41.254 17.4799 41.2945 17.6781C41.335 17.8762 41.4508 18.0512 41.6178 18.167L41.6473 18.1895C41.827 18.3001 42.0431 18.3365 42.2495 18.2911C42.4559 18.2457 42.6362 18.122 42.7518 17.9465C42.8291 17.8261 42.8721 17.6873 42.8764 17.5446C42.8806 17.402 42.8459 17.2608 42.776 17.1361C42.7061 17.0114 42.6035 16.9078 42.479 16.8362C42.3546 16.7645 42.213 16.7254 42.0692 16.727ZM33.2761 19.9558C33.1496 19.963 33.0266 20.0001 32.9174 20.0638C32.8081 20.1276 32.7157 20.2163 32.6479 20.3225C32.574 20.4425 32.5334 20.5796 32.53 20.7201C32.5267 20.8607 32.5608 20.9996 32.6289 21.1228C32.697 21.2461 32.7967 21.3493 32.9179 21.4222C33.0391 21.495 33.1776 21.5348 33.3192 21.5375C34.4124 21.5375 34.3716 19.895 33.2761 19.9558ZM42.0692 25.529C41.9354 25.53 41.8041 25.5643 41.6872 25.6288C41.5703 25.6932 41.4715 25.7858 41.4001 25.898C41.29 26.0691 41.2506 26.2757 41.2904 26.4749C41.3301 26.674 41.4458 26.8502 41.6133 26.9668L41.6473 26.9893C41.8271 27.098 42.0425 27.133 42.2479 27.0868C42.4533 27.0406 42.6324 26.9168 42.7473 26.7418C42.8233 26.6216 42.8653 26.4834 42.869 26.3417C42.8727 26.1999 42.838 26.0597 42.7685 25.9358C42.699 25.8119 42.5972 25.7088 42.4738 25.6372C42.3504 25.5657 42.2121 25.5283 42.0692 25.529ZM32.1467 33.6155C32.0128 33.6199 31.8821 33.6576 31.7668 33.7253C31.6514 33.7929 31.5551 33.8882 31.4867 34.0025C31.4328 34.0911 31.3971 34.1894 31.3815 34.2917C31.3659 34.394 31.3709 34.4983 31.396 34.5988C31.4324 34.7438 31.5095 34.8757 31.6184 34.9791C31.7272 35.0825 31.8634 35.1532 32.011 35.1831C32.1587 35.213 32.3119 35.2008 32.4529 35.1479C32.5938 35.095 32.7168 35.0037 32.8076 34.8844C32.8985 34.765 32.9534 34.6227 32.9661 34.4737C32.9787 34.3247 32.9487 34.1752 32.8793 34.0425C32.8099 33.9098 32.7041 33.7992 32.574 33.7237C32.444 33.6481 32.295 33.6106 32.1444 33.6155H32.1467ZM42.0692 35.3908C41.9354 35.3917 41.8041 35.426 41.6872 35.4905C41.5703 35.555 41.4715 35.6476 41.4001 35.7598V35.7643C41.2924 35.9352 41.2545 36.1405 41.2941 36.3383C41.3338 36.536 41.4479 36.7114 41.6133 36.8285L41.6473 36.851C41.8266 36.9602 42.0416 36.9959 42.2469 36.9505C42.4522 36.9051 42.6317 36.7823 42.7473 36.608C42.8238 36.4878 42.8664 36.3494 42.8704 36.2073C42.8744 36.0652 42.8398 35.9246 42.7703 35.8004C42.7007 35.6761 42.5986 35.5727 42.4749 35.501C42.3511 35.4293 42.2102 35.392 42.0669 35.393L42.0692 35.3908ZM35.712 40.9933C35.5262 40.995 35.347 41.062 35.2062 41.1823C35.0816 41.2875 34.9926 41.4283 34.9513 41.5854C34.91 41.7425 34.9183 41.9085 34.9753 42.0607C35.0322 42.213 35.1349 42.3442 35.2696 42.4366C35.4042 42.529 35.5642 42.5781 35.7278 42.5773C35.9194 42.5786 36.1049 42.5106 36.2495 42.386C36.3286 42.3183 36.3934 42.2358 36.4401 42.1431C36.4869 42.0504 36.5146 41.9494 36.5216 41.846C36.5301 41.7373 36.5158 41.628 36.4798 41.525C36.4438 41.4219 36.3867 41.3274 36.3123 41.2472C36.2378 41.1669 36.1475 41.1028 36.0469 41.0587C35.9464 41.0147 35.8378 40.9916 35.7278 40.991C35.7225 40.9909 35.7173 40.9932 35.712 40.9933Z" fill="white"/>
</svg>
