<svg width="48" height="23" viewBox="0 0 48 23" fill="none" xmlns="http://www.w3.org/2000/svg">
<path d="M47.9972 15.9662C47.8999 17.7382 47.1377 19.4032 45.8698 20.6134C44.6018 21.8236 42.9261 22.4854 41.1928 22.4607H24.838C24.478 22.4572 24.1338 22.3089 23.8798 22.0476C23.6259 21.7864 23.4826 21.4333 23.4809 21.0648V3.0362C23.469 2.72683 23.5489 2.42103 23.71 2.15901C23.8711 1.89699 24.1059 1.69103 24.3835 1.56822C24.3835 1.56822 25.8877 0.500008 29.0563 0.500008C30.9919 0.497631 32.8921 1.0321 34.5548 2.04663C35.8527 2.82836 36.9779 3.87734 37.8594 5.12722C38.7408 6.3771 39.3593 7.80067 39.6757 9.30787C40.2401 9.14442 40.824 9.0628 41.4104 9.06539C42.29 9.05972 43.1617 9.23553 43.9734 9.58232C44.7852 9.92911 45.5204 10.4398 46.1351 11.0838C46.7499 11.7279 47.2316 12.4921 47.5515 13.331C47.8714 14.1698 48.023 15.0661 47.9972 15.9662Z" fill="white"/>
<path d="M21.439 4.1765C21.4471 4.1005 21.4396 4.02358 21.4168 3.95077C21.394 3.87797 21.3564 3.8109 21.3066 3.75395C21.2568 3.69699 21.1958 3.65144 21.1276 3.62025C21.0594 3.58906 20.9856 3.57294 20.9109 3.57294C20.8362 3.57294 20.7623 3.58906 20.6942 3.62025C20.626 3.65144 20.565 3.69699 20.5151 3.75395C20.4653 3.8109 20.4278 3.87797 20.405 3.95077C20.3822 4.02358 20.3746 4.1005 20.3828 4.1765C19.9347 10.2385 19.589 15.9203 20.3828 21.9626C20.3971 22.0957 20.4589 22.2188 20.5564 22.3081C20.6538 22.3975 20.7801 22.4469 20.9109 22.4469C21.0417 22.4469 21.1679 22.3975 21.2654 22.3081C21.3628 22.2188 21.4246 22.0957 21.439 21.9626C22.2903 15.8679 21.9319 10.2909 21.439 4.1765Z" fill="white"/>
<path d="M18.136 6.27362C18.1213 6.13378 18.0566 6.00444 17.9544 5.91047C17.8522 5.81649 17.7197 5.76451 17.5823 5.76451C17.4449 5.76451 17.3124 5.81649 17.2102 5.91047C17.108 6.00444 17.0433 6.13378 17.0286 6.27362C16.4365 11.4879 16.4365 16.7549 17.0286 21.9692C17.0487 22.1039 17.1153 22.2268 17.2163 22.3155C17.3173 22.4043 17.446 22.4531 17.5791 22.4531C17.7122 22.4531 17.8409 22.4043 17.9419 22.3155C18.0429 22.2268 18.1095 22.1039 18.1296 21.9692C18.791 16.7594 18.7932 11.484 18.136 6.27362Z" fill="white"/>
<path d="M14.8138 5.74278C14.7994 5.60797 14.7369 5.48336 14.6382 5.39284C14.5396 5.30232 14.4118 5.25226 14.2793 5.25226C14.1469 5.25226 14.0191 5.30232 13.9204 5.39284C13.8218 5.48336 13.7593 5.60797 13.7448 5.74278C13.2391 11.2739 12.9831 16.438 13.7448 21.9561C13.7448 22.1003 13.8008 22.2387 13.9004 22.3407C14.0001 22.4427 14.1352 22.5 14.2761 22.5C14.417 22.5 14.5522 22.4427 14.6518 22.3407C14.7514 22.2387 14.8074 22.1003 14.8074 21.9561C15.5947 16.366 15.3515 11.346 14.8138 5.74278Z" fill="white"/>
<path d="M11.5108 7.32217C11.5108 7.17269 11.4528 7.02934 11.3496 6.92365C11.2464 6.81795 11.1063 6.75857 10.9603 6.75857C10.8143 6.75857 10.6743 6.81795 10.5711 6.92365C10.4678 7.02934 10.4098 7.17269 10.4098 7.32217C9.79852 12.1866 9.79852 17.1113 10.4098 21.9757C10.4244 22.1122 10.4876 22.2384 10.5874 22.3301C10.6873 22.4217 10.8166 22.4724 10.9507 22.4724C11.0848 22.4724 11.2142 22.4217 11.314 22.3301C11.4139 22.2384 11.4771 22.1122 11.4916 21.9757C12.1541 17.1152 12.1606 12.1845 11.5108 7.32217Z" fill="white"/>
<path d="M8.17586 10.9855C8.17586 10.8378 8.11854 10.6961 8.0165 10.5917C7.91446 10.4872 7.77607 10.4285 7.63177 10.4285C7.48746 10.4285 7.34907 10.4872 7.24703 10.5917C7.145 10.6961 7.08767 10.8378 7.08767 10.9855C6.30034 14.7603 6.6716 18.1944 7.11968 22.015C7.13901 22.1399 7.20121 22.2535 7.29508 22.3356C7.38895 22.4176 7.50833 22.4627 7.63177 22.4627C7.7552 22.4627 7.87459 22.4176 7.96846 22.3356C8.06233 22.2535 8.12452 22.1399 8.14386 22.015C8.63674 18.1419 9.01441 14.7866 8.17586 10.9855Z" fill="white"/>
<path d="M4.86649 10.4089C4.85169 10.2673 4.7863 10.1364 4.6829 10.0413C4.57951 9.94617 4.4454 9.89355 4.30639 9.89355C4.16737 9.89355 4.03327 9.94617 3.92987 10.0413C3.82648 10.1364 3.76109 10.2673 3.74629 10.4089C3.04857 14.2623 3.27901 17.657 3.76549 21.5039C3.8167 22.0871 4.78327 22.0806 4.84728 21.5039C5.38498 17.598 5.63462 14.3016 4.86649 10.4089Z" fill="white"/>
<path d="M1.5251 12.2962C1.51031 12.1547 1.44492 12.0238 1.34152 11.9287C1.23813 11.8336 1.10402 11.7809 0.965007 11.7809C0.825993 11.7809 0.691889 11.8336 0.588492 11.9287C0.485094 12.0238 0.419708 12.1547 0.40491 12.2962C-0.235201 14.8849 -0.0367669 17.0278 0.449718 19.623C0.463962 19.7545 0.525059 19.8759 0.621314 19.9642C0.717569 20.0524 0.84222 20.1012 0.971408 20.1012C1.1006 20.1012 1.22525 20.0524 1.3215 19.9642C1.41776 19.8759 1.47885 19.7545 1.4931 19.623C2.0564 16.9754 2.33164 14.8783 1.5251 12.2962Z" fill="white"/>
</svg>
