<svg width="48" height="49" viewBox="0 0 48 49" fill="none" xmlns="http://www.w3.org/2000/svg">
<path d="M24.9523 0.519296C11.7071 -0.00714052 0.543763 10.3027 0.0192909 23.5479C-0.507143 36.7932 9.80539 47.9543 23.0482 48.4807C36.293 49.0071 47.4544 38.6973 47.9809 25.4521C48.505 12.2068 38.1952 1.04338 24.9523 0.519296ZM35.0825 35.6787C34.7839 36.2052 34.2026 36.4684 33.6365 36.3895C33.4635 36.3652 33.2901 36.3083 33.1277 36.2162C29.9558 34.4109 26.4987 33.2352 22.8529 32.7217C19.2071 32.2083 15.5589 32.386 12.0119 33.2482C11.2419 33.4345 10.4676 32.963 10.2812 32.193C10.0949 31.4233 10.5664 30.649 11.3364 30.4622C15.2364 29.5145 19.2467 29.3195 23.2522 29.8832C27.2577 30.4469 31.0569 31.7391 34.547 33.7244C35.2335 34.1171 35.4751 34.9899 35.0844 35.6787H35.0825ZM38.2367 29.3788C37.7476 30.2826 36.6155 30.6203 35.7117 30.1311C32.0003 28.1239 27.9815 26.8054 23.7677 26.2131C19.5538 25.6211 15.3286 25.7812 11.207 26.6869C10.983 26.7352 10.7618 26.7442 10.5468 26.7132C9.79872 26.6081 9.15813 26.0511 8.9871 25.2677C8.76546 24.2631 9.40174 23.2694 10.4064 23.0478C14.9622 22.0455 19.6327 21.8678 24.2874 22.5214C28.9402 23.1749 33.3823 24.6318 37.4844 26.8517C38.3901 27.3409 38.7259 28.4706 38.2367 29.3764V29.3788ZM41.7335 22.2758C41.2726 23.1619 40.3142 23.6205 39.3794 23.4887C39.1272 23.4538 38.8793 23.3746 38.6404 23.2518C34.3191 21.0032 29.6639 19.5185 24.8052 18.8359C19.9465 18.1537 15.0611 18.2985 10.2879 19.2682C9.04634 19.5204 7.83735 18.7174 7.58512 17.4782C7.33288 16.2367 8.13587 15.0281 9.37546 14.7758C14.6618 13.703 20.0669 13.5429 25.4435 14.2977C30.82 15.052 35.9706 16.6972 40.7571 19.187C41.8802 19.7707 42.3168 21.1547 41.7335 22.2777V22.2758Z" fill="white"/>
</svg>
