<svg width="48" height="35" viewBox="0 0 48 35" fill="none" xmlns="http://www.w3.org/2000/svg">
<path d="M47.5219 7.8363C47.5219 7.8363 47.0531 4.50333 45.6094 3.03985C43.7812 1.11372 41.7375 1.10428 40.8 0.990974C34.0875 0.5 24.0094 0.5 24.0094 0.5H23.9906C23.9906 0.5 13.9125 0.5 7.2 0.990974C6.2625 1.10428 4.21875 1.11372 2.39062 3.03985C0.946875 4.50333 0.4875 7.8363 0.4875 7.8363C0.4875 7.8363 0 11.7547 0 15.6636V19.327C0 23.2359 0.478125 27.1543 0.478125 27.1543C0.478125 27.1543 0.946875 30.4872 2.38125 31.9507C4.20937 33.8768 6.60938 33.8107 7.67813 34.0185C11.5219 34.3867 24 34.5 24 34.5C24 34.5 34.0875 34.4811 40.8 33.9996C41.7375 33.8863 43.7812 33.8768 45.6094 31.9507C47.0531 30.4872 47.5219 27.1543 47.5219 27.1543C47.5219 27.1543 48 23.2453 48 19.327V15.6636C48 11.7547 47.5219 7.8363 47.5219 7.8363ZM19.0406 23.7741V10.1873L32.0062 17.0043L19.0406 23.7741Z" fill="white"/>
</svg>
