<svg width="48" height="49" viewBox="0 0 48 49" fill="none" xmlns="http://www.w3.org/2000/svg">
<path fill-rule="evenodd" clip-rule="evenodd" d="M35.4545 24.5C35.4545 18.1727 30.3 13.0455 24 13.0455C17.7 13.0455 12.5455 18.1727 12.5455 24.5C12.5455 30.8273 17.6727 35.9545 24 35.9545C30.3273 35.9545 35.4545 30.8273 35.4545 24.5ZM30.2727 24.2273L19.6364 30.7727V18.2273L30.2727 24.2273Z" fill="white"/>
<path fill-rule="evenodd" clip-rule="evenodd" d="M48 24.5C48 37.7548 37.2548 48.5 24 48.5C10.7452 48.5 0 37.7548 0 24.5C0 11.2452 10.7452 0.5 24 0.5C37.2548 0.5 48 11.2452 48 24.5ZM11.4545 24.5C11.4545 17.5727 17.0727 11.9545 24 11.9545C30.9273 11.9545 36.5455 17.5727 36.5455 24.5C36.5455 31.4273 30.9273 37.0455 24 37.0455C17.0727 37.0455 11.4545 31.4273 11.4545 24.5Z" fill="white"/>
</svg>
