<svg width="200" height="200" viewBox="0 0 200 200" fill="none" xmlns="http://www.w3.org/2000/svg">
<path d="M200 0H0V200H200V0Z" fill="#EFF1F3"/>
<path fill-rule="evenodd" clip-rule="evenodd" d="M55.4172 64.136C55.4338 61.7453 57.3665 59.8107 59.7572 59.7917H138.577C140.975 59.7917 142.917 61.7385 142.917 64.136V134.197C142.9 136.588 140.968 138.523 138.577 138.542H59.7572C57.3597 138.539 55.4172 136.595 55.4172 134.197V64.136ZM134.168 68.5418H64.1677V129.792L104.82 89.1305C106.529 87.4227 109.298 87.4227 111.007 89.1305L134.168 112.336V68.5418ZM72.9167 86.0415C72.9167 90.874 76.8342 94.7915 81.6667 94.7915C86.4992 94.7915 90.4167 90.874 90.4167 86.0415C90.4167 81.209 86.4992 77.2915 81.6667 77.2915C76.8342 77.2915 72.9167 81.209 72.9167 86.0415Z" fill="#687787"/>
</svg>
